<?xml version="1.0" encoding="UTF-8"?>
<svg xmlns:cc="http://creativecommons.org/ns#" data-name="Livello 1" xmlns:dc="http://purl.org/dc/elements/1.1/" xmlns:rdf="http://www.w3.org/1999/02/22-rdf-syntax-ns#" space="preserve" version="1.1" viewBox="0 0 240 240" xmlns="http://www.w3.org/2000/svg">
 <title>Telegram_logo</title>
 <script/>
 <metadata>
  <rdf:RDF>
   <cc:Work rdf:about="">
    <dc:title>Telegram_logo</dc:title>
   </cc:Work>
  </rdf:RDF>
 </metadata>
 <path d="m40 0c-22.16 0-40 17.84-40 40v160c0 22.16 17.84 40 40 40h160c22.16 0 40-17.84 40-40v-160c0-22.16-17.84-40-40-40h-160zm3.3242 40.133c7.9552 0.12027 17.785 5.1164 25.289 10.75h0.001953c20.8 15.615 43.171 47.277 51.385 64.268 8.2146-16.99 30.587-48.653 51.387-64.268 15.008-11.267 39.324-19.985 39.324 7.7559 0 5.5402-3.1761 46.541-5.0391 53.197-6.4758 23.142-30.074 29.045-51.064 25.473 36.691 6.2446 46.025 26.929 25.867 47.613-38.283 39.284-55.023-9.8577-59.314-22.449-0.60206-1.7673-0.96105-2.8132-1.0977-2.7949h-0.00195c-0.0391 0.01187-0.05932 0.11814-0.06055 0.32618-0.00136-0.20805-0.02337-0.31431-0.0625-0.32618h-0.00195c-0.13671-0.01831-0.49365 1.0276-1.0957 2.7949-4.2896 12.591-21.029 61.734-59.314 22.449-20.158-20.684-10.824-41.37 25.867-47.613-20.991 3.5724-44.59-2.331-51.064-25.473-1.8631-6.6569-5.0391-47.658-5.0391-53.197 0-13.87 6.08-18.626 14.035-18.506z" fill="#4ea5d9" stroke-width="3.7795"/>
</svg>
