<?xml version="1.0" encoding="UTF-8"?>
<svg xmlns:cc="http://creativecommons.org/ns#" data-name="Livello 1" xmlns:dc="http://purl.org/dc/elements/1.1/" xmlns:rdf="http://www.w3.org/1999/02/22-rdf-syntax-ns#" space="preserve" version="1.1" viewBox="0 0 240 240" xmlns="http://www.w3.org/2000/svg">
 <title>Telegram_logo</title>
 <script/>
 <metadata>
  <rdf:RDF>
   <cc:Work rdf:about="">
    <dc:title>Telegram_logo</dc:title>
   </cc:Work>
  </rdf:RDF>
 </metadata>
 <path d="m40 0c-22.16 0-40 17.84-40 40v160c0 22.16 17.84 40 40 40h160c22.16 0 40-17.84 40-40v-160c0-22.16-17.84-40-40-40h-160zm54.344 43.986c1.6312 2.923 3.5632 6.8549 4.8652 9.9824 13.737-2.1045 27.602-2.1045 41.596 0 1.3023-3.1275 3.1918-7.0594 4.8086-9.9824 13.164 2.2801 25.755 6.2851 37.531 11.795 20.591 30.749 30.823 65.429 27.045 105.43-15.754 11.78-31.036 18.927-46.061 23.604-3.7203-5.1004-7.0119-10.537-9.8594-16.236 5.4231-2.0609 10.632-4.6056 15.555-7.5723-1.2878-0.96461-2.5617-1.9721-3.8066-3.0098-29.577 14.001-62.101 14.001-92.035 0-1.2304 1.0377-2.5046 2.0452-3.8066 3.0098 4.9078 2.9522 10.102 5.496 15.525 7.5566-2.8474 5.7143-6.1533 11.136-9.8594 16.236-15.01-4.6767-30.277-11.823-46.031-23.588-3.2195-34.505 3.2198-69.507 26.973-105.4 11.776-5.5243 24.382-9.5441 37.561-11.824z" fill="#4EA5D9" stroke-width="3.7795"/>
</svg>
