<?xml version="1.0" encoding="UTF-8"?>
<svg xmlns:cc="http://creativecommons.org/ns#" data-name="Livello 1" xmlns:dc="http://purl.org/dc/elements/1.1/" xmlns:rdf="http://www.w3.org/1999/02/22-rdf-syntax-ns#" space="preserve" version="1.1" viewBox="0 0 240 240" xmlns="http://www.w3.org/2000/svg">
 <title>Telegram_logo</title>
 <script/>
 <metadata>
  <rdf:RDF>
   <cc:Work rdf:about="">
    <dc:title>Telegram_logo</dc:title>
   </cc:Work>
  </rdf:RDF>
 </metadata>
 <path d="m57.15 76.501h125.7s-50.585 41.9-62.85 41.9-62.85-41.9-62.85-41.9zm-17.15-76.501c-22.16 0-40 17.84-40 40v160c0 22.16 17.84 40 40 40h160c22.16 0 40-17.84 40-40v-160c0-22.16-17.84-40-40-40zm14.5 66.986h131c6.3015 0 11.375 5.0735 11.375 11.375v83.277c0 6.3015-5.0735 11.375-11.375 11.375h-131c-6.3015 0-11.375-5.0735-11.375-11.375v-83.277c0-6.3015 5.0735-11.375 11.375-11.375z" fill="#4EA5D9" stroke-width="3.7795"/>
</svg>
