<?xml version="1.0" encoding="UTF-8"?>
<svg xmlns:cc="http://creativecommons.org/ns#" data-name="Livello 1" xmlns:dc="http://purl.org/dc/elements/1.1/" xmlns:rdf="http://www.w3.org/1999/02/22-rdf-syntax-ns#" version="1.1" viewBox="0 0 240 240" xmlns="http://www.w3.org/2000/svg">
 <title>Telegram_logo</title>
 <path d="m40 0c-22.16 0-40 17.84-40 40v160c0 22.16 17.84 40 40 40h160c22.16 0 40-17.84 40-40v-160c0-22.16-17.84-40-40-40h-160zm158.65 51.15c0.72965-3.01e-4 1.4458 0.085012 2.0547 0.31641a3.5606 3.5606 0 0 1 2.4258 2.6445 12.045 12.045 0 0 1 0.32617 3.3301c-0.0116 0.96804-0.12608 1.8625-0.21485 3.2695-0.89081 14.373-27.549 121.64-27.549 121.64 0 0-1.5943 6.2792-7.3086 6.4941a10.466 10.466 0 0 1-7.6289-2.9512c-5.9398-5.1093-19.609-14.82-32.424-23.676-9e-3 6e-3 -8.8718 6.334-20.32 17.785-11.454 11.457-9.9805 0-9.9805 0l3.5176-37.389 0.07031 0.05078c0.16109-0.38589 0.43359-0.70312 0.43359-0.70312s67.489-59.988 69.285-66.285c0.13903-0.48788-0.38636-0.72932-1.0918-0.51562-4.4823 1.649-82.184 50.721-90.76 56.137a4.1322 4.1322 0 0 1-1.9062 0.11523l-37.701-12.283s-4.5055-1.8276-3.0547-5.9727c0.29865-0.85476 0.90287-1.5821 2.7051-2.832 8.3532-5.8224 154.61-58.393 154.61-58.393s2.3208-0.78034 4.5098-0.78125z" fill="#4EA5D9" stroke-width="3.7795"/>
 <script/>
 <metadata>
  <rdf:RDF>
   <cc:Work rdf:about="">
    <dc:title>Telegram_logo</dc:title>
   </cc:Work>
  </rdf:RDF>
 </metadata>
</svg>
